<svg  viewBox="0 0 115 41" fill="none" xmlns="http://www.w3.org/2000/svg">
<path d="M21.4219 1.05301C21.5432 1.15038 21.0453 9.8637 20.915 10.364C20.8032 10.7844 19.6896 10.8844 19.5429 10.4887C19.5009 10.37 19.282 8.20291 19.057 5.69734C18.755 2.25703 18.714 1.10253 18.8715 1.00006C19.1075 0.836399 21.2597 0.896632 21.4219 1.05301ZM14.251 2.1203C14.414 2.3165 15.8252 6.51333 17.1989 10.8304C17.2829 11.0678 17.1073 11.2702 16.594 11.5186C16.1994 11.725 15.8432 11.8511 15.8023 11.792C15.7617 11.753 14.7301 9.79993 13.5326 7.49141C11.096 2.77554 11.121 3.05394 12.8207 2.32573C14.0265 1.82564 14.0066 1.826 14.251 2.1203ZM27.5182 2.21628C28.02 2.4262 28.4625 2.65713 28.524 2.75559C28.6471 2.95252 24.7968 11.3288 24.4818 11.5337C24.1864 11.7184 23.4424 11.3336 23.4359 10.9752C23.433 10.8159 23.9385 9.0539 24.5588 7.03083C25.1791 5.00776 25.7802 3.02487 25.8921 2.60454C26.0958 1.76426 26.2743 1.72116 27.5182 2.21628ZM8.38696 6.0319C8.55026 6.24801 9.85446 7.85745 11.3009 9.62363C12.7275 11.3902 13.9101 12.8823 13.9115 12.962C13.9162 13.2208 13.075 14.0528 12.8161 14.0576C12.6768 14.0601 12.4356 13.945 12.2937 13.8082C12.1521 13.6913 11.3024 12.9698 10.4121 12.2093C9.52213 11.4687 8.38889 10.4935 7.88273 10.0447C7.37656 9.5958 6.62782 8.9522 6.22304 8.60107C5.79834 8.25031 5.45257 7.85828 5.45002 7.7189C5.4431 7.34058 7.61831 5.38866 7.87971 5.52331C8.00064 5.60077 8.22403 5.8357 8.38696 6.0319ZM33.8444 6.14397C34.2093 6.49582 34.5149 6.86867 34.5171 6.98814C34.5196 7.12752 34.2272 7.47148 33.8945 7.79625C33.5416 8.10148 32.6214 8.97478 31.8778 9.70543C27.2397 14.2121 27.593 13.9268 27.1686 13.5959C27.0068 13.4594 26.8631 13.2231 26.8601 13.0638C26.8572 12.9045 27.8487 11.5717 29.0566 10.0956C30.245 8.6398 31.5894 7.00185 31.9981 6.4765C32.4266 5.95079 32.857 5.52464 32.9765 5.52245C33.0761 5.52063 33.4794 5.79211 33.8444 6.14397ZM5.37375 12.2616C6.52145 12.9378 8.27231 13.9216 9.27845 14.4808C11.572 15.7335 11.6937 15.8508 11.31 16.6546C10.8873 17.4988 10.7881 17.5206 9.58573 17.1243C1.38951 14.406 1.59008 14.482 1.58462 14.1833C1.57733 13.7851 2.9017 11.052 3.10082 11.0483C3.22028 11.0462 4.24596 11.5851 5.37375 12.2616ZM4.73073 18.4878C6.48803 18.7345 8.48537 19.0366 9.14499 19.164L10.3441 19.3811L10.4209 20.3158C10.4959 21.151 10.4583 21.2712 10.0416 21.3585C9.38708 21.5099 1.07028 22.0006 0.789336 21.8862C0.508755 21.7918 0.392695 19.8021 0.591329 18.683C0.736784 17.9235 0.617315 17.9257 4.73073 18.4878ZM10.8611 23.6939C11.0056 23.9701 11.153 24.4056 11.1773 24.6441C11.2461 25.1408 11.1085 25.2429 8.38371 26.5476C3.62547 28.8455 2.89457 29.1776 2.57599 29.1834C2.17776 29.1907 0.94181 25.8671 1.1731 25.4446C1.28893 25.2433 10.0132 23.072 10.4129 23.1443C10.5331 23.182 10.7366 23.4173 10.8611 23.6939ZM12.9178 27.2415C13.2828 27.5934 13.588 27.9463 13.5898 28.0459C13.5935 28.245 11.077 31.1393 8.40116 34.0365L7.03394 35.5155L6.05998 34.5374C4.84235 33.3049 4.08706 32.3029 4.16233 32.0625C4.23725 31.8022 11.6126 26.6678 11.9707 26.6414C12.1296 26.6185 12.5529 26.8896 12.9178 27.2415ZM31.1705 30.9312C33.0562 32.7491 34.6192 34.3538 34.6214 34.4732C34.6268 34.7719 33.1369 36.0739 31.6223 37.1174C30.6387 37.7927 30.4407 37.8561 30.1974 37.6215C29.6699 37.0934 25.408 29.5028 25.5028 29.2422C25.56 29.1017 25.7558 28.9189 25.9339 28.8558C26.132 28.7925 26.5244 28.4666 26.8371 28.1422C27.1495 27.7979 27.4836 27.5527 27.5637 27.5712C27.644 27.6096 29.265 29.1136 31.1705 30.9312ZM16.8164 30.2177C16.8237 30.6159 13.8096 38.9769 13.5754 39.2401C13.3409 39.4834 9.60348 37.6994 9.43617 37.2642C9.37389 37.1259 9.52554 36.7049 9.77819 36.3617C10.0305 35.9985 11.1356 34.345 12.2407 32.6915C14.9938 28.5779 14.6409 28.8831 15.8266 29.459C16.3689 29.708 16.8135 30.0584 16.8164 30.2177ZM25.0805 31.2019C26.5721 34.3416 28.522 38.5883 28.5246 38.7277C28.5308 39.0662 24.0353 40.4829 23.5139 40.2933C23.3336 40.2368 23.1851 39.7416 23.0707 38.927C22.9985 38.2511 22.8369 37.0391 22.7236 36.2843C22.6098 35.5095 22.4036 34.0394 22.2453 33.0065C22.087 31.9737 21.9504 31.04 21.9486 30.9405C21.8845 30.7026 23.4636 29.9168 24.2383 29.8031C24.3375 29.7814 24.7079 30.4319 25.0805 31.2019ZM20.7296 30.7237C20.7496 30.7234 20.8298 32.9328 20.9188 35.6201L21.0876 40.497L19.3144 40.4697C18.3185 40.468 17.1813 40.3692 16.7411 40.2578C16.0808 40.0906 15.9797 40.0128 16.0724 39.6326C16.1277 39.3926 16.6083 37.3522 17.1048 35.0923C17.6211 32.8321 18.0832 30.8717 18.1404 30.7313C18.1962 30.5111 18.4945 30.4858 19.4719 30.5675C20.1504 30.6347 20.7293 30.7038 20.7296 30.7237Z" fill="#FF8000"/>
<path d="M52.9769 34.1868C49.6841 34.1868 46.98 33.0529 44.8648 30.785C42.7713 28.4953 41.7246 25.595 41.7246 22.0841C41.7246 18.5515 42.7495 15.6294 44.7994 13.3178C46.8492 11.0063 49.5641 9.85059 52.9442 9.85059C55.7354 9.85059 57.9706 10.592 59.6497 12.0749C61.3506 13.5359 62.3319 15.4222 62.5936 17.7337H57.8834C57.6653 16.5343 57.1201 15.5857 56.2479 14.8879C55.3974 14.1901 54.2962 13.8412 52.9442 13.8412C50.8725 13.8412 49.2915 14.6044 48.2012 16.1309C47.1109 17.6574 46.5657 19.6418 46.5657 22.0841C46.5657 24.5047 47.1436 26.4782 48.2993 28.0047C49.4769 29.5311 51.0361 30.2944 52.9769 30.2944C54.3507 30.2944 55.4955 29.9236 56.4114 29.1822C57.3273 28.419 57.8616 27.4159 58.0142 26.1729H62.659C62.5282 28.3754 61.6668 30.218 60.0749 31.7009C58.3086 33.3582 55.9426 34.1868 52.9769 34.1868Z" fill="#FF8000"/>
<path d="M78.8334 31.6682C77.1979 33.3473 75.0935 34.1868 72.5203 34.1868C69.9471 34.1868 67.8428 33.3473 66.2073 31.6682C64.5718 29.9673 63.754 27.852 63.754 25.3224C63.754 22.7929 64.5718 20.6885 66.2073 19.0094C67.8428 17.3085 69.9471 16.458 72.5203 16.458C75.0935 16.458 77.1979 17.3085 78.8334 19.0094C80.4689 20.6885 81.2866 22.7929 81.2866 25.3224C81.2866 27.852 80.4689 29.9673 78.8334 31.6682ZM72.5203 30.785C73.8505 30.785 74.8864 30.2944 75.6278 29.3131C76.391 28.3099 76.7726 26.9797 76.7726 25.3224C76.7726 23.6651 76.391 22.3349 75.6278 21.3318C74.8864 20.3287 73.8505 19.8271 72.5203 19.8271C71.1683 19.8271 70.1216 20.3287 69.3802 21.3318C68.6387 22.3131 68.268 23.6433 68.268 25.3224C68.268 26.9797 68.6387 28.3099 69.3802 29.3131C70.1216 30.2944 71.1683 30.785 72.5203 30.785Z" fill="#FF8000"/>
<path d="M93.5927 33.6962C93.3747 33.4127 93.2002 32.7912 93.0694 31.8317H93.004C92.5242 32.5513 91.9136 33.1074 91.1722 33.4999C90.4308 33.8925 89.395 34.0887 88.0648 34.0887C86.2984 34.0887 84.881 33.6417 83.8124 32.7476C82.7439 31.8535 82.2097 30.5887 82.2097 28.9532C82.2097 27.2523 82.7984 26.0093 83.976 25.2243C85.1536 24.4175 86.8109 23.8614 88.9479 23.5561C90.518 23.338 91.5865 23.12 92.1535 22.9019C92.7205 22.662 93.004 22.2477 93.004 21.6589C93.004 21.0483 92.7641 20.5686 92.2843 20.2197C91.8046 19.849 91.1068 19.6636 90.1909 19.6636C88.1629 19.6636 87.0835 20.4486 86.9526 22.0187H82.9947C83.0601 20.4268 83.7034 19.1075 84.9246 18.0608C86.1458 17.0141 87.9121 16.4907 90.2236 16.4907C94.9339 16.4907 97.289 18.5515 97.289 22.6729V31.2102C97.289 32.475 97.4852 33.2492 97.8778 33.5326V33.6962H93.5927ZM89.1442 30.9813C90.3654 30.9813 91.3249 30.6651 92.0227 30.0327C92.7423 29.4003 93.1021 28.648 93.1021 27.7757V25.257C92.6224 25.5405 91.5865 25.8676 89.9946 26.2383C88.7299 26.5218 87.8358 26.8489 87.3124 27.2196C86.7891 27.5685 86.5274 28.1137 86.5274 28.8551C86.5274 30.2725 87.3997 30.9813 89.1442 30.9813Z" fill="#FF8000"/>
<path d="M104.14 16.916V19.2057H104.239C105.394 17.3739 107.052 16.458 109.211 16.458C110.933 16.458 112.329 17.0468 113.397 18.2244C114.466 19.3801 115 20.8848 115 22.7383V33.6962H110.552V23.3925C110.552 22.4767 110.29 21.7352 109.767 21.1683C109.265 20.6013 108.556 20.3178 107.64 20.3178C106.659 20.3178 105.841 20.6776 105.187 21.3972C104.555 22.1168 104.239 23.0436 104.239 24.1776V33.6962H99.79V16.916H104.14Z" fill="#FF8000"/>
</svg>
